<svg width="25" height="24" viewBox="0 0 25 24" fill="none" xmlns="http://www.w3.org/2000/svg">
    <path d="M16.7416 8H16.3416C13.8516 8 11.8416 10.01 11.8416 12.5C11.8416 13.02 11.9316 13.52 12.0916 13.99C12.0116 14 11.9216 14 11.8416 14H9.84155L5.84155 18V13.58C4.08155 12.81 2.84155 11.05 2.84155 9C2.84155 6.24 5.08155 4 7.84155 4H11.8416C14.2616 4 16.2816 5.72 16.7416 8Z" fill="white" fill-opacity="0.6"/>
    <path d="M22.8416 12.5C22.8416 10.01 20.8316 8 18.3416 8H16.3416C13.8516 8 11.8416 10.01 11.8416 12.5C11.8416 14.99 13.8516 17 16.3416 17H17.8416L20.8416 20V16.24C22.0516 15.43 22.8416 14.06 22.8416 12.5Z" fill="white" fill-opacity="0.3"/>
</svg>
