<svg width="25" height="24" viewBox="0 0 25 24" fill="none" xmlns="http://www.w3.org/2000/svg">
    <path d="M13.3416 2.00001L21.8416 10.5V22H3.84155V2.00001H13.3416Z" fill="white" fill-opacity="0.3"/>
    <path d="M15.8416 9C15.8416 10.6569 14.4984 12 12.8416 12C11.1847 12 9.84155 10.6569 9.84155 9C9.84155 7.34315 11.1847 6 12.8416 6C14.4984 6 15.8416 7.34315 15.8416 9Z" fill="white" fill-opacity="0.6"/>
    <path d="M12.8416 12C15.6016 12 17.8416 14.24 17.8416 17V18H7.84155V17C7.84155 14.24 10.0816 12 12.8416 12Z" fill="white" fill-opacity="0.6"/>
    <path d="M18.6416 5L18.2173 5.42426L18.6416 5.84853L19.0658 5.42426L18.6416 5ZM2.84155 11.5V10.9C2.51018 10.9 2.24155 11.1686 2.24155 11.5H2.84155ZM5.84155 11.5H6.44155C6.44155 11.1686 6.17292 10.9 5.84155 10.9V11.5ZM5.84155 12.5V13.1C6.17292 13.1 6.44155 12.8314 6.44155 12.5H5.84155ZM2.84155 12.5H2.24155C2.24155 12.8314 2.51018 13.1 2.84155 13.1V12.5ZM2.84155 18V17.4C2.51018 17.4 2.24155 17.6686 2.24155 18H2.84155ZM5.84155 18H6.44155C6.44155 17.6686 6.17292 17.4 5.84155 17.4V18ZM5.84155 19V19.6C6.17292 19.6 6.44155 19.3314 6.44155 19H5.84155ZM2.84155 19H2.24155C2.24155 19.3314 2.51018 19.6 2.84155 19.6V19ZM2.84155 5V4.4C2.51018 4.4 2.24155 4.66863 2.24155 5H2.84155ZM5.84155 5H6.44155C6.44155 4.66863 6.17292 4.4 5.84155 4.4V5ZM5.84155 6V6.6C6.17292 6.6 6.44155 6.33137 6.44155 6H5.84155ZM2.84155 6H2.24155C2.24155 6.33137 2.51018 6.6 2.84155 6.6V6ZM16.4173 3.62426L18.2173 5.42426L19.0658 4.57574L17.2658 2.77574L16.4173 3.62426ZM19.0658 5.42426L22.0658 2.42426L21.2173 1.57574L18.2173 4.57574L19.0658 5.42426ZM2.84155 12.1H5.84155V10.9H2.84155V12.1ZM5.24155 11.5V12.5H6.44155V11.5H5.24155ZM5.84155 11.9H2.84155V13.1H5.84155V11.9ZM3.44155 12.5V11.5H2.24155V12.5H3.44155ZM2.84155 18.6H5.84155V17.4H2.84155V18.6ZM5.24155 18V19H6.44155V18H5.24155ZM5.84155 18.4H2.84155V19.6H5.84155V18.4ZM3.44155 19V18H2.24155V19H3.44155ZM2.84155 5.6H5.84155V4.4H2.84155V5.6ZM5.24155 5V6H6.44155V5H5.24155ZM5.84155 5.4H2.84155V6.6H5.84155V5.4ZM3.44155 6V5H2.24155V6H3.44155Z" fill="white" fill-opacity="0.6"/>
</svg>
