<svg width="25" height="24" viewBox="0 0 25 24" fill="none" xmlns="http://www.w3.org/2000/svg">
    <path d="M19.076 13.4528C20.848 13.4528 22.4906 12.9251 23.8399 12.0258C22.7671 15.0542 19.8235 17.2629 16.318 17.4054C16.3321 17.5183 16.3394 17.6333 16.3394 17.75C16.3394 19.2688 14.8597 20.5 13.3415 20.5C13.2632 20.5 13.1856 20.4967 13.1089 20.4903L9.34155 20.5H5.84155C3.49434 20.5 1.84155 18.8211 1.84155 16.75C1.84155 14.6789 3.74434 13 6.09155 13C6.42276 13 6.74512 13.0334 7.05454 13.0967C7.03388 12.9607 7.02316 12.8215 7.02316 12.6798C7.02316 11.9586 7.30065 11.3023 7.75463 10.8119C7.67911 10.3829 7.6398 9.94224 7.6398 9.49284C7.6398 6.80616 9.04471 4.43194 11.1931 2.99996C10.9114 3.79526 10.7587 4.64709 10.7587 5.53288C10.7587 9.90693 14.4825 13.4528 19.076 13.4528Z" fill="white" fill-opacity="0.6"/>
</svg>
