<svg width="25" height="24" viewBox="0 0 25 24" fill="none" xmlns="http://www.w3.org/2000/svg">
    <path d="M11.8417 2C9.50171 2 6.55171 3.72 6.60171 8.16L2.88171 12.98C2.77171 13.12 2.90171 13.3 3.10171 13.3L5.58171 14.53C5.71171 15.45 6.19171 18.13 6.45171 19.47C6.54171 19.89 10.6417 19.57 10.6417 19.57L11.8417 22" fill="white" fill-opacity="0.3"/>
    <path d="M17.0085 2.80234C17.1202 2.49035 16.9578 2.14691 16.6458 2.03525C16.3338 1.92359 15.9903 2.08599 15.8787 2.39799L14.8587 5.24798C14.747 5.55998 14.9094 5.90341 15.2214 6.01507C15.5334 6.12673 15.8768 5.96433 15.9885 5.65234L17.0085 2.80234Z" fill="white" fill-opacity="0.6"/>
    <path d="M23.2129 5.82049C23.4782 5.62192 23.5323 5.24589 23.3337 4.9806C23.1351 4.71532 22.7591 4.66124 22.4938 4.85982L19.0738 7.41982C18.8085 7.61839 18.7544 7.99442 18.953 8.2597C19.1516 8.52499 19.5276 8.57907 19.7929 8.38049L23.2129 5.82049Z" fill="white" fill-opacity="0.6"/>
    <path d="M19.2949 12.4262C19.3192 12.0958 19.6067 11.8475 19.9372 11.8718L23.2072 12.1118C23.5377 12.136 23.786 12.4236 23.7617 12.7541C23.7374 13.0846 23.4499 13.3328 23.1194 13.3085L19.8494 13.0685C19.5189 13.0443 19.2707 12.7567 19.2949 12.4262Z" fill="white" fill-opacity="0.6"/>
    <path d="M12.8835 17.9102C12.5522 17.9102 12.2835 18.1788 12.2835 18.5102C12.2835 18.8416 12.5522 19.1102 12.8835 19.1102H15.5135C15.8449 19.1102 16.1135 18.8416 16.1135 18.5102C16.1135 18.1788 15.8449 17.9102 15.5135 17.9102H12.8835Z" fill="white" fill-opacity="0.6"/>
    <path d="M14.1365 11.7839C14.1493 11.7825 14.1622 11.7815 14.1752 11.7809C14.1714 11.7804 14.1675 11.7802 14.1636 11.7802C14.1542 11.7802 14.1451 11.7815 14.1365 11.7839Z" fill="white" fill-opacity="0.6"/>
    <path fill-rule="evenodd" clip-rule="evenodd" d="M12.2835 15.9301C12.2835 15.5987 12.5522 15.3301 12.8835 15.3301H13.043C11.7238 14.2228 9.91768 11.7931 11.3936 9.85018C12.8336 7.96018 15.5636 7.96018 17.0036 9.85018C18.4781 11.7911 16.6842 14.2246 15.3619 15.3301H15.5135C15.8449 15.3301 16.1135 15.5987 16.1135 15.9301C16.1135 16.2615 15.8449 16.5301 15.5135 16.5301H12.8835C12.5522 16.5301 12.2835 16.2615 12.2835 15.9301ZM14.8036 15.3301V12.7749C15.0821 12.5753 15.2636 12.249 15.2636 11.8802C15.2636 11.2727 14.7711 10.7802 14.1636 10.7802C13.5561 10.7802 13.0636 11.2727 13.0636 11.8802C13.0636 12.2832 13.2803 12.6356 13.6036 12.8272V15.3301H14.8036Z" fill="white" fill-opacity="0.6"/>
</svg>
