<svg width="125" height="44" viewBox="0 0 125 44" fill="none" xmlns="http://www.w3.org/2000/svg">
<path d="M19.2115 2C19.2115 2 -1.67258 12.181 14.8807 30.3588C11.4561 24.6342 7.52788 10.9479 19.2115 2Z" fill="#2FB4FC"/>
<path d="M14.607 23.2483C10.8851 10.3287 17.0883 8.00323 20.5 4.86564C17.7474 9.18445 13.6264 10.0541 17.9412 22.8053C20.9265 31.6275 15.3695 38.5056 12.1258 42C15.3695 38.5056 17.6377 33.7684 14.607 23.2483Z" fill="#3A13BB"/>
<line x1="28.75" y1="2.25" x2="28.75" y2="41.75" stroke="white" stroke-opacity="0.8" stroke-width="0.5" stroke-linecap="round"/>
<path d="M40.172 19.06C39.548 19.06 38.956 18.956 38.396 18.748C37.844 18.532 37.416 18.256 37.112 17.92L37.388 17.464C37.676 17.76 38.068 18.012 38.564 18.22C39.068 18.42 39.6 18.52 40.16 18.52C40.72 18.52 41.176 18.448 41.528 18.304C41.888 18.152 42.152 17.952 42.32 17.704C42.496 17.456 42.584 17.18 42.584 16.876C42.584 16.516 42.488 16.228 42.296 16.012C42.104 15.796 41.852 15.624 41.54 15.496C41.228 15.368 40.888 15.26 40.52 15.172C40.152 15.084 39.78 14.992 39.404 14.896C39.028 14.792 38.684 14.66 38.372 14.5C38.06 14.34 37.808 14.124 37.616 13.852C37.432 13.572 37.34 13.212 37.34 12.772C37.34 12.372 37.444 12.004 37.652 11.668C37.86 11.332 38.184 11.06 38.624 10.852C39.064 10.644 39.628 10.54 40.316 10.54C40.78 10.54 41.236 10.608 41.684 10.744C42.14 10.88 42.528 11.064 42.848 11.296L42.62 11.788C42.268 11.548 41.888 11.372 41.48 11.26C41.08 11.14 40.692 11.08 40.316 11.08C39.78 11.08 39.336 11.156 38.984 11.308C38.632 11.46 38.372 11.664 38.204 11.92C38.036 12.168 37.952 12.448 37.952 12.76C37.952 13.12 38.044 13.408 38.228 13.624C38.42 13.84 38.672 14.012 38.984 14.14C39.296 14.268 39.64 14.376 40.016 14.464C40.392 14.552 40.764 14.648 41.132 14.752C41.5 14.848 41.84 14.976 42.152 15.136C42.464 15.296 42.716 15.512 42.908 15.784C43.1 16.056 43.196 16.408 43.196 16.84C43.196 17.232 43.088 17.6 42.872 17.944C42.656 18.28 42.324 18.552 41.876 18.76C41.436 18.96 40.868 19.06 40.172 19.06ZM53.3645 19.06C52.3245 19.06 51.5045 18.756 50.9045 18.148C50.3045 17.54 50.0045 16.636 50.0045 15.436V10.6H50.6165V15.412C50.6165 16.46 50.8565 17.236 51.3365 17.74C51.8165 18.244 52.4965 18.496 53.3765 18.496C54.2485 18.496 54.9245 18.244 55.4045 17.74C55.8845 17.236 56.1245 16.46 56.1245 15.412V10.6H56.7365V15.436C56.7365 16.636 56.4365 17.54 55.8365 18.148C55.2365 18.756 54.4125 19.06 53.3645 19.06ZM64.3921 19V10.6H67.4041C68.1081 10.6 68.7121 10.712 69.2161 10.936C69.7201 11.16 70.1081 11.484 70.3801 11.908C70.6521 12.324 70.7881 12.832 70.7881 13.432C70.7881 14.016 70.6521 14.52 70.3801 14.944C70.1081 15.36 69.7201 15.684 69.2161 15.916C68.7121 16.14 68.1081 16.252 67.4041 16.252H64.7281L65.0041 15.964V19H64.3921ZM70.2241 19L68.0401 15.952H68.7361L70.9201 19H70.2241ZM65.0041 16L64.7281 15.712H67.4041C68.3081 15.712 68.9921 15.512 69.4561 15.112C69.9281 14.712 70.1641 14.152 70.1641 13.432C70.1641 12.704 69.9281 12.144 69.4561 11.752C68.9921 11.352 68.3081 11.152 67.4041 11.152H64.7281L65.0041 10.852V16ZM76.4248 19L80.2888 10.6H80.9008L84.7648 19H84.1048L80.4568 10.984H80.7208L77.0848 19H76.4248ZM77.8408 16.636L78.0448 16.12H83.0728L83.2768 16.636H77.8408ZM92.0216 19.06C91.5656 19.06 91.1376 18.956 90.7376 18.748C90.3456 18.532 90.0296 18.236 89.7896 17.86L90.1616 17.452C90.3936 17.796 90.6656 18.06 90.9776 18.244C91.2976 18.42 91.6456 18.508 92.0216 18.508C93.1336 18.508 93.6896 17.848 93.6896 16.528V11.152H90.5936V10.6H94.3016V16.528C94.3016 17.368 94.1096 18 93.7256 18.424C93.3416 18.848 92.7736 19.06 92.0216 19.06ZM101.96 19V10.6H102.572V19H101.96ZM111.907 19V11.152H108.883V10.6H115.543V11.152H112.519V19H111.907ZM37.964 34V25.6H38.576V34H37.964ZM49.8671 34.06C49.2431 34.06 48.6631 33.956 48.1271 33.748C47.5991 33.532 47.1351 33.232 46.7351 32.848C46.3431 32.456 46.0391 32.004 45.8231 31.492C45.6071 30.972 45.4991 30.408 45.4991 29.8C45.4991 29.192 45.6071 28.632 45.8231 28.12C46.0391 27.6 46.3431 27.148 46.7351 26.764C47.1351 26.372 47.5991 26.072 48.1271 25.864C48.6631 25.648 49.2431 25.54 49.8671 25.54C50.4911 25.54 51.0671 25.648 51.5951 25.864C52.1311 26.072 52.5951 26.368 52.9871 26.752C53.3791 27.136 53.6831 27.588 53.8991 28.108C54.1231 28.62 54.2351 29.184 54.2351 29.8C54.2351 30.416 54.1231 30.984 53.8991 31.504C53.6831 32.016 53.3791 32.464 52.9871 32.848C52.5951 33.232 52.1311 33.532 51.5951 33.748C51.0671 33.956 50.4911 34.06 49.8671 34.06ZM49.8671 33.496C50.4031 33.496 50.8991 33.404 51.3551 33.22C51.8111 33.036 52.2071 32.776 52.5431 32.44C52.8791 32.104 53.1391 31.712 53.3231 31.264C53.5151 30.816 53.6111 30.328 53.6111 29.8C53.6111 29.264 53.5151 28.776 53.3231 28.336C53.1391 27.888 52.8791 27.496 52.5431 27.16C52.2071 26.824 51.8111 26.564 51.3551 26.38C50.8991 26.196 50.4031 26.104 49.8671 26.104C49.3311 26.104 48.8351 26.196 48.3791 26.38C47.9231 26.564 47.5231 26.824 47.1791 27.16C46.8431 27.496 46.5791 27.888 46.3871 28.336C46.2031 28.776 46.1111 29.264 46.1111 29.8C46.1111 30.328 46.2031 30.816 46.3871 31.264C46.5791 31.712 46.8431 32.104 47.1791 32.44C47.5231 32.776 47.9231 33.036 48.3791 33.22C48.8351 33.404 49.3311 33.496 49.8671 33.496Z" fill="white"/>
</svg>
